<?xml version="1.0" encoding="utf-8"?>
<!-- Generator: Adobe Illustrator 16.0.0, SVG Export Plug-In . SVG Version: 6.00 Build 0)  -->
<!DOCTYPE svg PUBLIC "-//W3C//DTD SVG 1.1//EN" "http://www.w3.org/Graphics/SVG/1.1/DTD/svg11.dtd">
<svg version="1.1" id="Layer_1" xmlns="http://www.w3.org/2000/svg" xmlns:xlink="http://www.w3.org/1999/xlink" x="0px" y="0px"
	 width="16px" height="16px" viewBox="0 0 16 16" enable-background="new 0 0 16 16" xml:space="preserve">
<polyline points="2.134,4.518 2.134,11.814 8.098,8.784 8.098,1.489 "/>
<g>
	<path fill="#FFFFFF" d="M3.806,6.474L3.68,6.075l-0.597,0.29L2.949,6.89L2.393,7.16l0.688-2.667l0.724-0.351l0.7,1.993L3.806,6.474
		z M3.199,5.8L3.56,5.625l-0.18-0.59L3.199,5.8z"/>
	<path fill="#FFFFFF" d="M6.469,2.849v1.544c0,0.293-0.083,0.544-0.249,0.753C6.054,5.354,5.837,5.523,5.57,5.653
		C5.289,5.79,5.063,5.838,4.893,5.798c-0.17-0.041-0.255-0.2-0.255-0.478V3.738L5.333,3.4v1.499c0,0.112,0.022,0.182,0.068,0.211
		c0.045,0.03,0.117,0.02,0.216-0.028C5.7,5.042,5.767,4.991,5.82,4.928c0.052-0.062,0.084-0.12,0.094-0.171
		C5.924,4.705,5.93,4.611,5.93,4.476V3.11L6.469,2.849z"/>
	<path fill="#FFFFFF" d="M7.52,2.338v2.333L6.835,5.003V2.67L7.52,2.338z"/>
</g>
<linearGradient id="SVGID_1_" gradientUnits="userSpaceOnUse" x1="358.6328" y1="787.1387" x2="363.5149" y2="779.6209" gradientTransform="matrix(1 0 0 1 -356 -775)">
	<stop  offset="0" style="stop-color:#3889B4"/>
	<stop  offset="1" style="stop-color:#1390CF"/>
</linearGradient>
<polyline fill="url(#SVGID_1_)" points="2.134,7.844 8.098,5 8.098,8.784 2.134,11.814 "/>
<path fill="#F26522" d="M11.991,16L9,13.459l2.991-2.465V16z"/>
<path fill="#62B543" d="M13,16l2.945-2.541L13,11V16z"/>
<linearGradient id="SVGID_2_" gradientUnits="userSpaceOnUse" x1="7.7715" y1="8.625" x2="5.4314" y2="13.4229">
	<stop  offset="0" style="stop-color:#305491"/>
	<stop  offset="1" style="stop-color:#0071AF"/>
</linearGradient>
<polygon fill="url(#SVGID_2_)" points="11.034,10.303 8.098,8.784 2.134,11.814 6.58,13.968 "/>
<linearGradient id="SVGID_3_" gradientUnits="userSpaceOnUse" x1="13.6152" y1="3.9487" x2="7.7725" y2="8.3516">
	<stop  offset="0" style="stop-color:#0076B7"/>
	<stop  offset="1" style="stop-color:#0084AC"/>
</linearGradient>
<polygon fill="url(#SVGID_3_)" points="12.61,9.006 14.063,10.217 14.063,4.542 8.098,1.502 8.098,8.784 11.034,10.303 "/>
</svg>
