<?xml version="1.0" encoding="utf-8"?>
<!-- Generator: Adobe Illustrator 16.0.0, SVG Export Plug-In . SVG Version: 6.00 Build 0)  -->
<!DOCTYPE svg PUBLIC "-//W3C//DTD SVG 1.1//EN" "http://www.w3.org/Graphics/SVG/1.1/DTD/svg11.dtd">
<svg version="1.1" id="Layer_1" xmlns="http://www.w3.org/2000/svg" xmlns:xlink="http://www.w3.org/1999/xlink" x="0px" y="0px"
	 width="16px" height="16px" viewBox="0 0 16 16" enable-background="new 0 0 16 16" xml:space="preserve">
<polyline points="2.134,4.518 2.134,11.814 8.098,8.784 8.098,1.489 "/>
<linearGradient id="SVGID_1_" gradientUnits="userSpaceOnUse" x1="9.2549" y1="2.71" x2="6.8931" y2="7.5524" gradientTransform="matrix(1 0 0 -1 0 16.9238)">
	<stop  offset="0" style="stop-color:#305491"/>
	<stop  offset="1" style="stop-color:#0071AF"/>
</linearGradient>
<polygon fill="url(#SVGID_1_)" points="2.134,11.814 8.098,8.784 14.062,11.87 8.098,14.703 "/>
<linearGradient id="SVGID_2_" gradientUnits="userSpaceOnUse" x1="15.4844" y1="6.9424" x2="6.6978" y2="13.5635" gradientTransform="matrix(1 0 0 -1 0 16.9238)">
	<stop  offset="0" style="stop-color:#0076B7"/>
	<stop  offset="1" style="stop-color:#0084AC"/>
</linearGradient>
<polyline fill="url(#SVGID_2_)" points="14.062,4.542 14.062,11.87 8.098,8.784 8.098,1.502 "/>
<g>
	<path fill="#FFFFFF" d="M3.806,6.474L3.68,6.075l-0.597,0.29L2.949,6.89L2.393,7.16l0.688-2.667l0.724-0.351l0.7,1.993L3.806,6.474
		z M3.199,5.8L3.56,5.625L3.38,5.035L3.199,5.8z"/>
	<path fill="#FFFFFF" d="M6.469,2.849v1.544c0,0.293-0.083,0.544-0.249,0.753C6.054,5.354,5.837,5.523,5.57,5.653
		C5.289,5.79,5.063,5.838,4.893,5.798c-0.17-0.041-0.255-0.2-0.255-0.478V3.738L5.333,3.4v1.499c0,0.112,0.022,0.182,0.068,0.211
		c0.045,0.03,0.117,0.02,0.216-0.028c0.083-0.04,0.15-0.091,0.203-0.154c0.052-0.062,0.084-0.12,0.094-0.171
		C5.924,4.705,5.93,4.611,5.93,4.476V3.11L6.469,2.849z"/>
	<path fill="#FFFFFF" d="M7.52,2.338v2.333L6.835,5.003V2.67L7.52,2.338z"/>
</g>
<linearGradient id="SVGID_3_" gradientUnits="userSpaceOnUse" x1="2.6333" y1="12.1387" x2="7.5148" y2="4.6218">
	<stop  offset="0" style="stop-color:#3889B4"/>
	<stop  offset="1" style="stop-color:#1390CF"/>
</linearGradient>
<polyline fill="url(#SVGID_3_)" points="2.134,7.844 8.098,5 8.098,8.784 2.134,11.814 "/>
</svg>
